<svg version="1.0" xmlns="http://www.w3.org/2000/svg" width="346.667" height="346.667" viewBox="0 0 260 260"><path d="M0 130v130h260V0H0v130zm146.5-55.9c22 4.1 34.4 23.3 26 40.4-3 6.2-6.7 9.6-14.2 13.3-2.9 1.5-5.3 2.9-5.3 3.3 0 .3 1.9 3.5 4.3 7 2.3 3.5 8.7 13.7 14.2 22.7l10 16.3 6.8 3.2c5.1 2.3 6.7 3.6 6.7 5.2 0 2-.4 2-19.2 1.8l-19.2-.2-12.9-25.6C129.5 133.2 130.2 134 120 134h-5.9l.1 21 .2 20.9 2.5 1c1.4.6 4.6 1.5 7.1 2.1 8.2 2 8 1.9 8 5.7v3.5l-11.7-.8c-6.5-.5-17-.7-23.3-.4-20.5.8-22.4.7-22.8-1.1-.5-2.6 2.4-4.7 7.7-5.4 8.5-1.2 7.9 2.7 8.3-49.7.1-25.6 0-46.9-.4-47.3-.4-.4-3.6-1-7.2-1.2-6-.5-6.5-.7-6.9-3.2-.3-1.4-.2-2.9.1-3.3.4-.4 11.2-.9 24.1-1.2 12.9-.3 23.6-.8 23.9-1.1 1-.9 16.7-.5 22.7.6z"/><path d="M114.8 82.6c-.2.5-.4 10.3-.3 21.9v21l3.9.3c6 .5 17.2-1.7 20.8-4.2 7.5-5 10.1-13.1 7.4-23.5-3-11.7-8.1-15.3-22.2-15.9-5-.2-9.3 0-9.6.4z"/></svg>