<?xml version="1.0" standalone="no"?>
<!DOCTYPE svg PUBLIC "-//W3C//DTD SVG 20010904//EN"
 "http://www.w3.org/TR/2001/REC-SVG-20010904/DTD/svg10.dtd">
<svg version="1.0" xmlns="http://www.w3.org/2000/svg" width="260.000000pt" height="260.000000pt" viewBox="0 0 260.000000 260.000000" preserveAspectRatio="xMidYMid meet">
<metadata>
Created by potrace 1.14, written by Peter Selinger 2001-2017
</metadata>
<g transform="translate(0.000000,260.000000) scale(0.100000,-0.100000)" fill="#000000" stroke="none">
<path d="M0 1300 l0 -1300 1300 0 1300 0 0 1300 0 1300 -1300 0 -1300 0 0
-1300z m1465 559 c220 -41 344 -233 260 -404 -30 -62 -67 -96 -142 -133 -29
-15 -53 -29 -53 -33 0 -3 19 -35 43 -70 23 -35 87 -137 142 -227 l100 -163 68
-32 c51 -23 67 -36 67 -52 0 -20 -4 -20 -192 -18 l-192 2 -129 256 c-142 283
-135 275 -237 275 l-59 0 1 -210 2 -209 25 -10 c14 -6 46 -15 71 -21 82 -20
80 -19 80 -57 l0 -35 -117 8 c-65 5 -170 7 -233 4 -205 -8 -224 -7 -228 11 -5
26 24 47 77 54 85 12 79 -27 83 497 1 256 0 469 -4 473 -4 4 -36 10 -72 12
-60 5 -65 7 -69 32 -3 14 -2 29 1 33 4 4 112 9 241 12 129 3 236 8 239 11 10
9 167 5 227 -6z"></path>
<path d="M1148 1774 c-2 -5 -4 -103 -3 -219 l0 -210 39 -3 c60 -5 172 17 208
42 75 50 101 131 74 235 -30 117 -81 153 -222 159 -50 2 -93 0 -96 -4z"></path>
</g>
</svg>
